<svg width="124" height="24" viewBox="0 0 124 24" fill="none" xmlns="http://www.w3.org/2000/svg">
<path d="M0.984 0.0879993H5.4V8.44C6.59467 6.60533 8.248 5.688 10.36 5.688C11.8533 5.688 13.112 6.12533 14.136 7C15.3093 7.96 15.896 9.48533 15.896 11.576V23H11.48V12.472C11.48 10.4453 10.584 9.432 8.792 9.432C7.78933 9.432 6.968 9.74133 6.328 10.36C5.70933 10.9787 5.4 11.7787 5.4 12.76V23H0.984V0.0879993ZM27.4095 5.688C30.2042 5.688 32.3482 6.584 33.8415 8.376C35.1428 9.912 35.7935 11.96 35.7935 14.52C35.7935 17.464 34.9508 19.7253 33.2655 21.304C31.7935 22.6693 29.8415 23.352 27.4095 23.352C24.6148 23.352 22.4708 22.4667 20.9775 20.696C19.6762 19.1387 19.0255 17.08 19.0255 14.52C19.0255 11.5973 19.8682 9.34667 21.5535 7.768C23.0255 6.38133 24.9775 5.688 27.4095 5.688ZM27.4095 9.24C26.2148 9.24 25.2548 9.73067 24.5295 10.712C23.8042 11.672 23.4415 12.9413 23.4415 14.52C23.4415 16.2267 23.8468 17.5707 24.6575 18.552C25.3828 19.384 26.3002 19.8 27.4095 19.8C28.6042 19.8 29.5642 19.32 30.2895 18.36C31.0362 17.3787 31.4095 16.0987 31.4095 14.52C31.4095 12.8347 30.9935 11.5013 30.1615 10.52C29.4362 9.66667 28.5188 9.24 27.4095 9.24ZM43.5265 0.0879993V23H39.1105V0.0879993H43.5265ZM52.2765 6.04V23H47.8605V6.04H52.2765ZM50.0365 0.216C50.6125 0.216 51.0925 0.418666 51.4765 0.823999C51.8818 1.22933 52.0845 1.72 52.0845 2.296C52.0845 2.872 51.8818 3.36267 51.4765 3.768C51.0925 4.152 50.6125 4.344 50.0365 4.344C49.4605 4.344 48.9698 4.152 48.5645 3.768C48.1592 3.36267 47.9565 2.872 47.9565 2.296C47.9565 1.72 48.1592 1.22933 48.5645 0.823999C48.9698 0.418666 49.4605 0.216 50.0365 0.216ZM71.7145 0.0879993V23H67.2985V21.112C66.2745 22.6053 64.7278 23.352 62.6585 23.352C60.4185 23.352 58.6158 22.4133 57.2505 20.536C56.0772 18.936 55.4905 16.9413 55.4905 14.552C55.4905 11.7147 56.2372 9.47467 57.7305 7.832C59.0318 6.40267 60.6638 5.688 62.6265 5.688C64.6958 5.688 66.2532 6.47733 67.2985 8.056V0.0879993H71.7145ZM63.6185 9.304C62.5092 9.304 61.6132 9.784 60.9305 10.744C60.2478 11.704 59.9065 12.9627 59.9065 14.52C59.9065 16.056 60.2372 17.304 60.8985 18.264C61.5812 19.2027 62.4878 19.672 63.6185 19.672C64.7492 19.672 65.6452 19.2027 66.3065 18.264C66.9892 17.3253 67.3305 16.0773 67.3305 14.52C67.3305 12.9413 66.9892 11.6827 66.3065 10.744C65.6238 9.784 64.7278 9.304 63.6185 9.304ZM90.355 21.88V23H85.555C85.235 22.5947 85.0643 22.0187 85.043 21.272C83.8697 22.6587 82.163 23.352 79.923 23.352C78.2803 23.352 76.9577 22.8507 75.955 21.848C75.1443 21.0373 74.739 19.9173 74.739 18.488C74.739 16.3547 75.5923 14.84 77.299 13.944C78.0243 13.56 79.4643 13.176 81.619 12.792L85.075 12.152L85.043 10.936C85.0217 9.80533 84.1683 9.24 82.483 9.24C81.395 9.24 80.627 9.41067 80.179 9.752C79.7523 10.072 79.4857 10.6693 79.379 11.544H75.155C75.411 7.64 77.8217 5.688 82.387 5.688C84.9043 5.688 86.7177 6.136 87.827 7.032C88.8297 7.88533 89.331 9.176 89.331 10.904V20.376C89.331 21.144 89.6723 21.6453 90.355 21.88ZM85.075 14.808L81.843 15.544C80.9257 15.7573 80.243 16.0667 79.795 16.472C79.3683 16.8773 79.155 17.3787 79.155 17.976C79.155 19.192 79.9443 19.8 81.523 19.8C83.8057 19.8 84.979 18.552 85.043 16.056L85.075 14.808ZM105.776 6.04V9.592L97.4558 19.448H106.064V23H92.0158V19.448L100.4 9.592H92.5598V6.04H105.776ZM123.799 15.672H112.407C112.471 17.0373 112.684 18.008 113.047 18.584C113.665 19.5227 114.636 19.992 115.959 19.992C117.601 19.992 118.7 19.3093 119.255 17.944H123.607C123.116 19.608 122.156 20.9307 120.727 21.912C119.319 22.872 117.665 23.352 115.767 23.352C113.185 23.352 111.201 22.488 109.815 20.76C108.599 19.2453 107.991 17.2507 107.991 14.776C107.991 11.768 108.78 9.44267 110.359 7.8C111.745 6.392 113.569 5.688 115.831 5.688C117.559 5.688 119.073 6.11467 120.375 6.968C121.676 7.82133 122.604 9.016 123.159 10.552C123.607 11.7467 123.831 13.1867 123.831 14.872C123.831 15.0853 123.82 15.352 123.799 15.672ZM119.223 12.76C119.009 10.2853 117.868 9.048 115.799 9.048C113.857 9.048 112.748 10.2853 112.471 12.76H119.223Z" fill="#9F1239"/>
</svg>
