<svg width="128" height="128" viewBox="0 0 128 128" fill="none" xmlns="http://www.w3.org/2000/svg">
<path fill-rule="evenodd" clip-rule="evenodd" d="M87.272 46.5456C87.272 52.7179 84.8201 58.6374 80.4556 63.0019C76.0911 67.3663 70.1716 69.8183 63.9993 69.8183C57.827 69.8183 51.9075 67.3663 47.543 63.0019C43.1785 58.6374 40.7266 52.7179 40.7266 46.5456C40.7266 40.3732 43.1785 34.4537 47.543 30.0893C51.9075 25.7248 57.827 23.2728 63.9993 23.2728C70.1716 23.2728 76.0911 25.7248 80.4556 30.0893C84.8201 34.4537 87.272 40.3732 87.272 46.5456ZM75.6357 46.5456C75.6357 49.6317 74.4097 52.5915 72.2274 54.7737C70.0452 56.9559 67.0854 58.1819 63.9993 58.1819C60.9131 58.1819 57.9534 56.9559 55.7711 54.7737C53.5889 52.5915 52.3629 49.6317 52.3629 46.5456C52.3629 43.4594 53.5889 40.4996 55.7711 38.3174C57.9534 36.1352 60.9131 34.9092 63.9993 34.9092C67.0854 34.9092 70.0452 36.1352 72.2274 38.3174C74.4097 40.4996 75.6357 43.4594 75.6357 46.5456Z" fill="#9F1239"/>
<path fill-rule="evenodd" clip-rule="evenodd" d="M64 0C28.6545 0 0 28.6545 0 64C0 99.3455 28.6545 128 64 128C99.3455 128 128 99.3455 128 64C128 28.6545 99.3455 0 64 0ZM11.6364 64C11.6364 76.16 15.7847 87.3542 22.7375 96.2444C27.6203 89.8321 33.9194 84.6356 41.1429 81.0607C48.3663 77.4858 56.3185 75.6294 64.3782 75.6364C72.3336 75.6288 80.1857 77.4372 87.3363 80.9238C94.487 84.4104 100.747 89.4832 105.641 95.7556C110.682 89.1439 114.076 81.4267 115.543 73.2427C117.009 65.0587 116.506 56.6431 114.074 48.6923C111.643 40.7414 107.353 33.4839 101.559 27.5202C95.7658 21.5565 88.6356 17.0581 80.7586 14.3971C72.8815 11.7362 64.4841 10.9892 56.261 12.218C48.0379 13.4468 40.2257 16.6161 33.4707 21.4636C26.7156 26.3111 21.212 32.6974 17.4152 40.0942C13.6183 47.491 11.6374 55.6856 11.6364 64ZM64 116.364C51.9793 116.382 40.3215 112.246 30.9993 104.657C34.7516 99.2857 39.746 94.8999 45.5575 91.8731C51.369 88.8463 57.8257 87.2681 64.3782 87.2727C70.8489 87.2675 77.2276 88.8062 82.9843 91.761C88.741 94.7158 93.7098 99.0014 97.4778 104.262C88.0832 112.097 76.2332 116.381 64 116.364Z" fill="#9F1239"/>
</svg>
